HIERARCHY
ROOT Hips
{
  OFFSET 54.7059 95.9841 6.0092
  CHANNELS 6 Xposition Yposition Zposition Zrotation Xrotation Yrotation
  JOINT spine
  {
    OFFSET 0 8.13249 0.467659
    CHANNELS 3 Zrotation Xrotation Yrotation
    JOINT spine1
    {
      OFFSET 0 10.3498 0
      CHANNELS 3 Zrotation Xrotation Yrotation
      JOINT spine2
      {
        OFFSET 0 9.91699 0
        CHANNELS 3 Zrotation Xrotation Yrotation
        JOINT Neck
        {
          OFFSET 0 25.461 1.2139
          CHANNELS 3 Zrotation Xrotation Yrotation
          JOINT Head
          {
            OFFSET 0 7.69245 0
            CHANNELS 3 Zrotation Xrotation Yrotation
            End Site
            {
              OFFSET 0 18.62 -6.14063
            }
          }
        }
        JOINT RightShoulder
        {
          OFFSET -4.17575 10.7096 -0.581445
          CHANNELS 3 Zrotation Xrotation Yrotation
          JOINT RightArm
          {
            OFFSET 0 14.0466 0
            CHANNELS 3 Zrotation Xrotation Yrotation
            JOINT RightArmRoll
            {
              OFFSET 0 7.09098 0
              CHANNELS 3 Zrotation Xrotation Yrotation
              JOINT RightForeArm
              {
                OFFSET 0 20.6535 0
                CHANNELS 3 Zrotation Xrotation Yrotation
                JOINT RightForeArmRoll
                {
                  OFFSET 0 7.95718 0
                  CHANNELS 3 Zrotation Xrotation Yrotation
                  JOINT RightHand
                  {
                    OFFSET 0 15.9683 0
                    CHANNELS 3 Zrotation Xrotation Yrotation
                    End Site
                    {
                      OFFSET 0 0 0
                    }
                  }
                }
              }
            }
          }
        }
        JOINT LeftShoulder
        {
          OFFSET 4.17575 10.7096 -0.581445
          CHANNELS 3 Zrotation Xrotation Yrotation
          JOINT LeftArm
          {
            OFFSET 0 14.0466 0
            CHANNELS 3 Zrotation Xrotation Yrotation
            JOINT LeftArmRoll
            {
              OFFSET 0 7.09098 0
              CHANNELS 3 Zrotation Xrotation Yrotation
              JOINT LeftForeArm
              {
                OFFSET 0 20.6535 0
                CHANNELS 3 Zrotation Xrotation Yrotation
                JOINT LeftForeArmRoll
                {
                  OFFSET 0 7.95718 0
                  CHANNELS 3 Zrotation Xrotation Yrotation
                  JOINT LeftHand
                  {
                    OFFSET 0 15.9683 0
                    CHANNELS 3 Zrotation Xrotation Yrotation
                    End Site
                    {
                      OFFSET 0 0 0
                    }
                  }
                }
              }
            }
          }
        }
      }
    }
  }
  JOINT RightUpLeg
  {
    OFFSET -7.20834 -1.32182 -1.10884
    CHANNELS 3 Zrotation Xrotation Yrotation
    JOINT RightUpLegRoll
    {
      OFFSET 0 18.7238 0
      CHANNELS 3 Zrotation Xrotation Yrotation
      JOINT RightLeg
      {
        OFFSET 0 -23.1866 0
        CHANNELS 3 Zrotation Xrotation Yrotation
        JOINT RightLegRoll
        {
          OFFSET 0 23.2624 0
          CHANNELS 3 Zrotation Xrotation Yrotation
          JOINT RightFoot
          {
            OFFSET 0 19.3621 0
            CHANNELS 3 Zrotation Xrotation Yrotation
            JOINT RightToeBase
            {
              OFFSET 0 16.1857 0
              CHANNELS 3 Zrotation Xrotation Yrotation
              End Site
              {
                OFFSET 0.00686052 7.83862 -0.903522
              }
            }
          }
        }
      }
    }
  }
  JOINT LeftUpLeg
  {
    OFFSET 7.20834 -1.32182 -1.10884
    CHANNELS 3 Zrotation Xrotation Yrotation
    JOINT LeftUpLegRoll
    {
      OFFSET 0 18.7239 0
      CHANNELS 3 Zrotation Xrotation Yrotation
      JOINT LeftLeg
      {
        OFFSET 0 23.1865 0
        CHANNELS 3 Zrotation Xrotation Yrotation
        JOINT LeftLegRoll
        {
          OFFSET 0 23.4775 0
          CHANNELS 3 Zrotation Xrotation Yrotation
          JOINT LeftFoot
          {
            OFFSET 0 19.147 0
            CHANNELS 3 Zrotation Xrotation Yrotation
            JOINT LeftToeBase
            {
              OFFSET 0 16.1857 0
              CHANNELS 3 Zrotation Xrotation Yrotation
              End Site
              {
                OFFSET -0.0307459 7.83863 -0.903522
              }
            }
          }
        }
      }
    }
  }
}
MOTION
Frames: 4
Frame Time: 0.00208333
54.9861 96.0558 4.73509 -1.03114 -3.65831 0.195247 0.207238 -2.58237 -0.0116629 0.397545 -1.14883 -0.0325913 0.398011 0.496226 -0.0390751 -2.19798 27.236 -4.38627 -2.46492 4.77797 -5.42346 21.5857 -17.4975 -15.3438 -8.98408 56.5214 114.787 8.28929e-007 6.52721e-008 -4.86739e-006 -1.38539 69.6538 6.18913 1.1921e-005 1.53228e-006 -3.00387 8.02974 -4.95139 0.697656 -37.4403 -12.7303 8.67927 12.6871 45.2535 -100.697 -6.6334e-007 2.71169e-007 9.69661e-006 -3.99414 65.454 1.77893 -1.21208e-006 3.0592e-007 3 -8.02929 -4.95144 -0.697667 172.901 0.950376 3.96453 180 7.01559e-015 178.977 178.223 10.0145 179.711 -2.93943e-007 -4.95731e-006 -0.000777401 -16.931 68.1499 19.6674 8.13649 25.2327 -3.48774 -171.676 1.12321 -2.56061 4.5067e-006 -1.99009e-005 -0.909101 -0.964967 -13.785 0.503183 5.55242e-006 -2.06791e-007 -0.207508 20.0088 71.8191 -23.1116 -8.13676 25.2366 3.48249 
54.9891 96.056 4.72326 -1.0405 -3.65762 0.187089 0.207456 -2.58216 -0.0131677 0.398636 -1.14929 -0.0358314 0.399138 0.495762 -0.0423452 -2.17747 27.2532 -4.3925 -2.47319 4.7829 -5.42252 21.5845 -17.5065 -15.3553 -8.95254 56.5363 114.696 8.28929e-007 6.52721e-008 -4.86739e-006 -1.39179 69.6223 6.17881 1.1921e-005 1.53228e-006 -3.00388 8.02974 -4.95139 0.697656 -37.4773 -12.7167 8.66503 12.6889 45.2261 -100.6 -6.6334e-007 2.71169e-007 9.69661e-006 -3.98728 65.4487 1.7834 -1.21208e-006 3.0592e-007 3 -8.02929 -4.95144 -0.697667 172.913 0.949179 3.95754 180 7.01559e-015 178.977 178.223 10.0032 179.711 -2.93943e-007 -4.95731e-006 -0.000875147 -16.9296 68.142 19.6611 8.13649 25.2327 -3.48774 -171.663 1.12471 -2.56764 4.5067e-006 -1.99009e-005 -0.908475 -0.964665 -13.7872 0.503906 5.55242e-006 -2.06791e-007 -0.207411 20.003 71.8195 -23.1115 -8.13676 25.2366 3.48249 
54.9783 96.0553 4.72299 -1.05007 -3.6571 0.178329 0.20767 -2.58179 -0.0147622 0.399873 -1.14959 -0.0392852 0.400413 0.495459 -0.0458339 -2.15895 27.2677 -4.39813 -2.48047 4.79093 -5.42157 21.5846 -17.5137 -15.3643 -8.90745 56.5472 114.593 8.28929e-007 6.52721e-008 -4.86739e-006 -1.4032 69.582 6.17156 1.1921e-005 1.53228e-006 -3.00388 8.02974 -4.95139 0.697656 -37.516 -12.7038 8.65155 12.6826 45.1976 -100.492 -6.6334e-007 2.71169e-007 9.69661e-006 -3.97039 65.4259 1.78203 -1.21208e-006 3.0592e-007 3 -8.02929 -4.95144 -0.697667 172.926 0.9477 3.95049 180 7.01559e-015 178.976 178.224 9.99156 179.712 -2.93943e-007 -4.95731e-006 -0.000973318 -16.9279 68.1338 19.6544 8.13649 25.2327 -3.48774 -171.65 1.12577 -2.57488 4.5067e-006 -1.99009e-005 -0.907876 -0.964424 -13.7893 0.50464 5.55242e-006 -2.06791e-007 -0.207383 19.9974 71.8201 -23.1116 -8.13676 25.2366 3.48249 
54.9742 96.0553 4.72257 -1.05979 -3.65669 0.16904 0.207883 -2.58128 -0.0164283 0.401229 -1.14976 -0.0429119 0.401809 0.49529 -0.0494995 -2.14233 27.2798 -4.40319 -2.48673 4.80167 -5.42063 21.5859 -17.5193 -15.3712 -8.84969 56.5549 114.48 8.28929e-007 6.52721e-008 -4.86739e-006 -1.419 69.5338 6.16692 1.1921e-005 1.53228e-006 -3.00389 8.02974 -4.95139 0.697656 -37.5562 -12.6918 8.63877 12.6687 45.1679 -100.374 -6.6334e-007 2.71169e-007 9.69661e-006 -3.94453 65.3874 1.77543 -1.21208e-006 3.0592e-007 3 -8.02929 -4.95144 -0.697667 172.939 0.946005 3.94343 180 7.01559e-015 178.976 178.224 9.97948 179.712 -2.93943e-007 -4.95731e-006 -0.00107344 -16.9261 68.1252 19.6473 8.13649 25.2327 -3.48774 -171.637 1.12649 -2.58229 4.5067e-006 -1.99009e-005 -0.907303 -0.964244 -13.7914 0.505378 5.55242e-006 -2.06791e-007 -0.207412 19.992 71.8208 -23.112 -8.13676 25.2366 3.48249 
